<?xml version="1.0" encoding="UTF-8"?>
<svg viewBox="0 0 1920 1440" version="1.1" xmlns="http://www.w3.org/2000/svg" xmlns:xlink="http://www.w3.org/1999/xlink">
    <g stroke="none" stroke-width="1" fill="none" fill-rule="evenodd">
        <rect fill="#000000" x="0" y="0" width="1920" height="1440"></rect>
        <rect fill="var(--theme-thumb-aside)" opacity="0.8" x="0" y="0" width="1920" height="1440"></rect>
        <rect fill="var(--theme-thumb-body)" x="460" y="230" width="1364" height="1074"></rect>
        <g id="card-list" transform="translate(1160.000000, 848.000000)">
            <rect fill="var(--theme-thumb-panel)" x="0" y="0" width="632" height="424"></rect>
            <g id="item3" transform="translate(32.000000, 300.000000)">
                <rect fill="currentColor" x="496" y="16" width="72" height="40" rx="20"></rect>
                <circle fill="#FFFFFF" cx="548" cy="36" r="16"></circle>
                <polygon fill="#A1A5B7" opacity="0.16" points="104 16 164 16 164 28 104 28"></polygon>
                <polygon fill="#A1A5B7" opacity="0.16" points="104 44 344 44 344 56 104 56"></polygon>
                <polygon fill="currentColor" opacity="0.48" points="36 0 67.1769145 18 67.1769145 54 36 72 4.82308546 54 4.82308546 18"></polygon>
            </g>
            <g id="item2" transform="translate(32.000000, 176.000000)">
                <rect fill="#A1A5B7" opacity="0.16" x="496" y="16" width="72" height="40" rx="20"></rect>
                <circle fill="#FFFFFF" cx="516" cy="36" r="16"></circle>
                <polygon fill="#A1A5B7" opacity="0.16" points="104 16 164 16 164 28 104 28"></polygon>
                <polygon fill="#A1A5B7" opacity="0.16" points="104 44 344 44 344 56 104 56"></polygon>
                <polygon fill="#50CD89" opacity="0.48" points="36 0 67.1769145 18 67.1769145 54 36 72 4.82308546 54 4.82308546 18"></polygon>
            </g>
            <g id="item1" transform="translate(32.000000, 52.000000)">
                <rect fill="#A1A5B7" opacity="0.16" x="496" y="16" width="72" height="40" rx="20"></rect>
                <circle fill="#FFFFFF" cx="516" cy="36" r="16"></circle>
                <polygon fill="#A1A5B7" opacity="0.16" points="104 16 164 16 164 28 104 28"></polygon>
                <polygon fill="#A1A5B7" opacity="0.16" points="104 44 344 44 344 56 104 56"></polygon>
                <polygon fill="#F1416C" opacity="0.48" points="36 0 67.1769145 18 67.1769145 54 36 72 4.82308546 54 4.82308546 18"></polygon>
            </g>
        </g>
        <g id="card" transform="translate(496.000000, 848.000000)">
            <rect fill="var(--theme-thumb-panel)" x="-5.68434189e-14" y="0" width="632" height="424"></rect>
            <rect id="progress" fill="#50CD89" x="32" y="336" width="283" height="24"></rect>
            <g id="item3" transform="translate(432.000000, 48.000000)" fill="currentColor">
                <rect opacity="0.08" x="0" y="0" width="168" height="224"></rect>
                <path opacity="0.48" d="M54,92 L114,92 L114,104 L54,104 L54,92 Z M54,120 L94,120 L94,132 L54,132 L54,120 Z"></path>
            </g>
            <g id="item2" transform="translate(232.000000, 48.000000)" fill="#50CD89">
                <rect opacity="0.08" x="0" y="0" width="168" height="224"></rect>
                <path opacity="0.48" d="M54,92 L114,92 L114,104 L54,104 L54,92 Z M54,120 L94,120 L94,132 L54,132 L54,120 Z"></path>
            </g>
            <g id="item1" transform="translate(32.000000, 48.000000)" fill="#F1416C">
                <rect opacity="0.08" x="0" y="0" width="168" height="224"></rect>
                <path opacity="0.48" d="M54,92 L114,92 L114,104 L54,104 L54,92 Z M54,120 L94,120 L94,132 L54,132 L54,120 Z"></path>
            </g>
        </g>
        <g id="chart-bar" transform="translate(1382.000000, 456.000000)">
            <rect fill="var(--theme-thumb-panel)" x="0" y="0" width="410" height="360"></rect>
            <path fill="currentColor" opacity="0.08" d="M63,70 L83,70 L83,290 L63,290 L63,70 Z M107,70 L127,70 L127,290 L107,290 L107,70 Z M151,70 L171,70 L171,290 L151,290 L151,70 Z M195,70 L215,70 L215,290 L195,290 L195,70 Z M239,70 L259,70 L259,290 L239,290 L239,70 Z M283,70 L303,70 L303,290 L283,290 L283,70 Z M327,70 L347,70 L347,290 L327,290 L327,70 Z"></path>
            <path fill="currentColor" d="M63,202 L83,202 L83,290 L63,290 L63,202 Z M107,170 L127,170 L127,290 L107,290 L107,170 Z M151,210 L171,210 L171,290 L151,290 L151,210 Z M239,234 L259,234 L259,290 L239,290 L239,234 Z M283,162 L303,162 L303,290 L283,290 L283,162 Z M327,190 L347,190 L347,290 L327,290 L327,190 Z M195,130 L215,130 L215,290 L195,290 L195,130 Z"></path>
        </g>
        <g id="chart-line" transform="translate(938.000000, 456.000000)">
            <rect fill="var(--theme-thumb-panel)" x="0" y="0" width="412" height="360"></rect>
            <polygon fill="currentColor" opacity="0.16" points="35 182.002088 46.5952037 186.386221 62.1475357 193.374553 83.8584224 172.607516 108.287634 190.14405 133.014158 198.912317 161.841123 165.091858 182.801683 165.091858 231.325628 128.76618 258.210768 146.302714 280.723079 122.503132 328.447847 115.712758 360.586433 75.4176571 378 61 378 301 35 299.121086"></polygon>
            <path  fill="currentColor" d="M377.049468,59.839617 C377.69033,59.3146526 378.635419,59.4086061 379.160383,60.0494679 C379.652537,60.6502759 379.60072,61.5184709 379.064267,62.0572057 L378.950532,62.160383 L361.651,76.329 L329.608171,115.443893 C329.403576,115.693625 329.12487,115.86955 328.814542,115.94778 L328.65694,115.978644 L281.448,122.623 L259.294973,145.794635 C258.83105,146.279871 258.106597,146.394001 257.5207,146.089963 L257.397417,146.018395 L231.384,129.231 L183.694458,164.552842 C183.479181,164.712288 183.225962,164.810584 182.961497,164.838921 L182.801683,164.847457 L162.528,164.847 L134.150586,197.787429 C133.778806,198.218973 133.198087,198.399705 132.652969,198.26428 L132.517573,198.2238 L107.791049,189.548745 C107.702794,189.517781 107.617725,189.478666 107.536928,189.431959 L107.419072,189.356276 L83.994,172.719 L63.1785723,192.418968 C62.7753406,192.800569 62.1980134,192.925569 61.6783201,192.754246 L61.5381886,192.700145 L46.0696526,185.820366 L34.4744489,181.482839 C33.6985338,181.192585 33.3048276,180.328284 33.5950815,179.552369 C33.8682616,178.822096 34.64994,178.430389 35.3878423,178.628819 L35.5255511,178.673002 L47.2045508,183.044792 L61.843,189.552 L82.8273858,169.69374 C83.3103835,169.236651 84.0308621,169.155804 84.5988054,169.478601 L84.726984,169.560271 L108.982,186.787 L132.545,195.053 L160.704694,162.368411 C160.957982,162.074407 161.313954,161.891459 161.69655,161.854433 L161.841123,161.847457 L182.306,161.847 L230.432854,126.202559 C230.892859,125.861853 231.502244,125.815067 232.004769,126.070453 L232.13898,126.147602 L257.983,142.825 L279.638875,120.174894 C279.838574,119.966021 280.093595,119.820032 280.372619,119.752989 L280.513987,119.726121 L327.658,113.089 L359.426109,74.3137838 C359.457522,74.2754403 359.490797,74.238701 359.525806,74.203695 L359.635901,74.1040052 L377.049468,59.839617 Z"></path>
        </g>
        <g id="chart-pai" transform="translate(496.000000, 456.000000)">
            <rect fill="var(--theme-thumb-panel)" x="0" y="0" width="410" height="360"></rect>
            <path fill="currentColor" fill-rule="nonzero" d="M255.362174,157.906727 C265.573612,181.187572 258.499727,208.433591 238.252802,223.805776 C218.005876,239.177961 189.862373,238.670233 170.183037,222.577752 L135.369026,265.155526 C174.727695,297.340486 231.014697,298.355941 271.508545,267.611574 C312.002393,236.867207 326.150161,182.375173 305.727286,135.813486 L255.362174,157.906727 Z"></path>
            <path fill="#FFC700" d="M204.997054,124.999981 C226.828287,124.999981 246.592667,137.913312 255.362174,157.906727 L305.727286,135.813486 C288.188274,95.8266585 248.659517,70 204.997054,70 L204.997054,124.999981 Z"></path>
            <path fill="#50CD89" d="M150.640301,171.629676 C147.70949,190.658433 154.945364,209.839045 169.714153,222.19 L170.183037,222.577752 L135.369026,265.155526 C105.191175,240.478043 90.350959,201.693267 96.2891163,163.223328 L96.4754261,162.057683 L96.7499184,160.468783 C106.079671,108.699751 150.804152,70.7649481 203.400834,70.011429 L204.997054,70 L204.997054,124.999981 C178.354169,124.999981 155.585479,144.088398 150.873482,170.234376 L150.736236,171.028827 L150.640301,171.629676 Z"></path>
        </g>
        <g id="data-card" transform="translate(496.000000, 268.000000)">
            <g id="item4" transform="translate(664.000000, 0.000000)">
                <rect fill="var(--theme-thumb-panel)" x="0" y="0" width="300" height="156"></rect>
                <rect fill="#FFC700" opacity="0.48" x="32" y="50" width="56" height="56"></rect>
                <path fill="#FFC700" opacity="0.16" d="M104,58 L164,58 L164,70 L104,70 L104,58 Z M104,86 L144,86 L144,98 L104,98 L104,86 Z"></path>
                <path fill="#A1A5B7" opacity="0.16" d="M240,48 C223.431458,48 210,61.4314575 210,78 C210,94.5685425 223.431458,108 240,108 C256.568542,108 270,94.5685425 270,78 C270,61.4314575 256.568542,48 240,48 Z M240,52 C254.359403,52 266,63.6405965 266,78 C266,92.3594035 254.359403,104 240,104 C225.640597,104 214,92.3594035 214,78 C214,63.6405965 225.640597,52 240,52 Z"></path>
                <path fill="#FFC700" fill-rule="nonzero" d="M240,48 C256.568542,48 270,61.4314575 270,78 C270,79.1045695 269.104569,80 268,80 C266.895431,80 266,79.1045695 266,78 C266,63.6405965 254.359403,52 240,52 C238.895431,52 238,51.1045695 238,50 C238,48.8954305 238.895431,48 240,48 Z"></path>
            </g>
            <g id="item3" transform="translate(996.000000, 0.000000)">
                <rect fill="var(--theme-thumb-panel)" x="0" y="0" width="300" height="156"></rect>
                <rect fill="#50CD89" opacity="0.48" x="32" y="50" width="56" height="56"></rect>
                <path fill="#50CD89" opacity="0.16" d="M104,58 L164,58 L164,70 L104,70 L104,58 Z M104,86 L144,86 L144,98 L104,98 L104,86 Z"></path>
                <path fill="#A1A5B7" opacity="0.16" d="M240,48 C223.431458,48 210,61.4314575 210,78 C210,94.5685425 223.431458,108 240,108 C256.568542,108 270,94.5685425 270,78 C270,61.4314575 256.568542,48 240,48 Z M240,52 C254.359403,52 266,63.6405965 266,78 C266,92.3594035 254.359403,104 240,104 C225.640597,104 214,92.3594035 214,78 C214,63.6405965 225.640597,52 240,52 Z"></path>
                <path fill="#50CD89" fill-rule="nonzero" d="M240,48 C246.934751,48 253.513197,50.3626256 258.80341,54.6228633 C259.663703,55.3156618 259.799484,56.5746913 259.106686,57.4349842 C258.413887,58.2952771 257.154858,58.4310581 256.294565,57.7382595 C251.708931,54.0454241 246.013695,52 240,52 C238.895431,52 238,51.1045695 238,50 C238,48.8954305 238.895431,48 240,48 Z"></path>
            </g>
            <g id="item2" transform="translate(332.000000, 0.000000)">
                <rect fill="var(--theme-thumb-panel)" x="0" y="0" width="300" height="156"></rect>
                <rect fill="#F1416C" opacity="0.48" x="32" y="50" width="56" height="56"></rect>
                <path fill="#F1416C" opacity="0.16" d="M104,58 L164,58 L164,70 L104,70 L104,58 Z M104,86 L144,86 L144,98 L104,98 L104,86 Z"></path>
                <path fill="#A1A5B7" opacity="0.16" d="M240,48 C223.431458,48 210,61.4314575 210,78 C210,94.5685425 223.431458,108 240,108 C256.568542,108 270,94.5685425 270,78 C270,61.4314575 256.568542,48 240,48 Z M240,52 C254.359403,52 266,63.6405965 266,78 C266,92.3594035 254.359403,104 240,104 C225.640597,104 214,92.3594035 214,78 C214,63.6405965 225.640597,52 240,52 Z"></path>
                <path fill="#F1416C" fill-rule="nonzero" d="M240,48 C256.568542,48 270,61.4314575 270,78 C270,84.498609 267.926178,90.6891544 264.145333,95.8076353 C263.489053,96.6961011 262.23679,96.8843257 261.348324,96.2280466 C260.459859,95.5717676 260.271634,94.3195044 260.927913,93.4310385 C264.204679,88.9949765 266,83.6357825 266,78 C266,63.6405965 254.359403,52 240,52 C238.895431,52 238,51.1045695 238,50 C238,48.8954305 238.895431,48 240,48 Z"></path>
            </g>
            <g id="item1">
                <rect fill="var(--theme-thumb-panel)" x="0" y="0" width="300" height="156"></rect>
                <rect fill="currentColor" opacity="0.48" x="32" y="50" width="56" height="56"></rect>
                <path fill="currentColor" opacity="0.16" d="M104,58 L164,58 L164,70 L104,70 L104,58 Z M104,86 L144,86 L144,98 L104,98 L104,86 Z"></path>
                <path fill="#A1A5B7" opacity="0.16" d="M240,48 C223.431458,48 210,61.4314575 210,78 C210,94.5685425 223.431458,108 240,108 C256.568542,108 270,94.5685425 270,78 C270,61.4314575 256.568542,48 240,48 Z M240,52 C254.359403,52 266,63.6405965 266,78 C266,92.3594035 254.359403,104 240,104 C225.640597,104 214,92.3594035 214,78 C214,63.6405965 225.640597,52 240,52 Z"></path>
                <path fill="currentColor" d="M240.25,48 C256.818542,48 270.25,61.4314575 270.25,78 C270.25,94.5685425 256.818542,108 240.25,108 C239.145431,108 238.25,107.104569 238.25,106 C238.25,104.895431 239.145431,104 240.25,104 C254.609403,104 266.25,92.3594035 266.25,78 C266.25,63.6405965 254.609403,52 240.25,52 C239.145431,52 238.25,51.1045695 238.25,50 C238.25,48.8954305 239.145431,48 240.25,48 Z"></path>
            </g>
        </g>
        <g id="aside" transform="translate(96.000000, 236.000000)">
            <rect fill="var(--theme-thumb-aside)" x="0" y="-2" width="368" height="1070"></rect>
            <rect fill="currentColor" opacity="0.16" x="144" y="92" width="136" height="24"></rect>
            <rect fill="currentColor" opacity="0.16" x="144" y="180" width="136" height="24"></rect>
            <rect fill="currentColor" opacity="0.16" x="144" y="308" width="136" height="24"></rect>
            <rect fill="currentColor" opacity="0.16" x="144" y="396" width="136" height="24"></rect>
            <rect fill="currentColor" opacity="0.16" x="144" y="484" width="136" height="24"></rect>
            <rect fill="currentColor" opacity="0.16" x="144" y="572" width="136" height="24"></rect>
            <rect fill="currentColor" opacity="0.16" x="144" y="700" width="136" height="24"></rect>
            <rect fill="currentColor" opacity="0.16" x="144" y="788" width="136" height="24"></rect>
            <rect fill="currentColor" opacity="0.16" x="144" y="876" width="136" height="24"></rect>
            <circle fill="currentColor" opacity="0.48" cx="88" cy="104" r="24"></circle>
            <circle fill="currentColor" opacity="0.48" cx="88" cy="192" r="24"></circle>
            <circle fill="currentColor" opacity="0.48" cx="88" cy="320" r="24"></circle>
            <circle fill="currentColor" opacity="0.48" cx="88" cy="408" r="24"></circle>
            <circle fill="currentColor" opacity="0.48" cx="88" cy="496" r="24"></circle>
            <circle fill="currentColor" opacity="0.48" cx="88" cy="584" r="24"></circle>
            <circle fill="currentColor" opacity="0.48" cx="88" cy="712" r="24"></circle>
            <circle fill="currentColor" opacity="0.48" cx="88" cy="800" r="24"></circle>
            <circle fill="currentColor" opacity="0.48" cx="88" cy="888" r="24"></circle>
        </g>
        <g id="header" transform="translate(96.000000, 136.000000)">
            <rect fill="var(--theme-thumb-header)" x="0" y="0" width="1728" height="100"></rect>
            <path fill="currentColor" opacity="0.64" d="M32,24 L84,24 L84,76 L32,76 L32,24 Z"></path>
            <path fill="currentColor" opacity="0.64" d="M400,38 L478,38 L478,62 L400,62 L400,38 Z"></path>
            <path fill="currentColor" opacity="0.64" d="M620,38 L698,38 L698,62 L620,62 L620,38 Z"></path>
            <path fill="currentColor" opacity="0.64" d="M510,38 L588,38 L588,62 L510,62 L510,38 Z"></path>
            <path fill="currentColor" opacity="0.64" d="M1668,78 C1683.46397,78 1696,65.463973 1696,50 C1696,34.536027 1683.46397,22 1668,22 C1652.53603,22 1640,34.536027 1640,50 C1640,65.463973 1652.53603,78 1668,78 Z"></path>
        </g>
    </g>
</svg>