<?xml version="1.0" encoding="UTF-8"?>
<svg width="612px" height="328px" viewBox="0 0 612 328" version="1.1" xmlns="http://www.w3.org/2000/svg" xmlns:xlink="http://www.w3.org/1999/xlink">
    <title>404</title>
    <defs>
        <linearGradient x1="55.7113999%" y1="0%" x2="55.7113999%" y2="100%" id="linearGradient-1">
            <stop stop-color="#D8E0EC" offset="0%"></stop>
            <stop stop-color="#DBE2ED" offset="6.15991047%"></stop>
            <stop stop-color="#FFFFFF" stop-opacity="0" offset="100%"></stop>
        </linearGradient>
        <linearGradient x1="28.514752%" y1="7.39813998%" x2="40.8966629%" y2="100%" id="linearGradient-2">
            <stop stop-color="#E2E8F4" offset="0%"></stop>
            <stop stop-color="#F9FAFF" offset="100%"></stop>
        </linearGradient>
        <linearGradient x1="50%" y1="41.6889463%" x2="13.5850883%" y2="35.2080607%" id="linearGradient-3">
            <stop stop-color="#DDE0EB" offset="0%"></stop>
            <stop stop-color="#B8BED3" offset="100%"></stop>
        </linearGradient>
        <linearGradient x1="37.58248%" y1="54.6238476%" x2="25.4150387%" y2="46.9433905%" id="linearGradient-4">
            <stop stop-color="#DDE0EB" offset="0%"></stop>
            <stop stop-color="#B8BED3" offset="100%"></stop>
        </linearGradient>
        <linearGradient x1="81.7188081%" y1="83.9509896%" x2="0%" y2="36.2503728%" id="linearGradient-5">
            <stop stop-color="#DDE0EB" offset="0%"></stop>
            <stop stop-color="#B8BED3" offset="100%"></stop>
        </linearGradient>
        <linearGradient x1="59.6521306%" y1="59.8769888%" x2="50%" y2="32.877451%" id="linearGradient-6">
            <stop stop-color="#F4F5F9" offset="0%"></stop>
            <stop stop-color="#B9BFD3" offset="100%"></stop>
        </linearGradient>
        <linearGradient x1="50%" y1="0%" x2="50%" y2="100%" id="linearGradient-7">
            <stop stop-color="#68C9FF" offset="0%"></stop>
            <stop stop-color="#00A3FF" offset="100%"></stop>
        </linearGradient>
        <linearGradient x1="50%" y1="0%" x2="50%" y2="100%" id="linearGradient-8">
            <stop stop-color="#68C9FF" offset="0%"></stop>
            <stop stop-color="#00A3FF" offset="100%"></stop>
        </linearGradient>
    </defs>
    <g id="通用页面" stroke="none" stroke-width="1" fill="none" fill-rule="evenodd">
        <g id="404" transform="translate(-534.000000, -285.000000)">
            <g id="404" transform="translate(534.000000, 285.000000)">
                <g id="bg" opacity="0.590275254" transform="translate(0.000000, 139.077281)">
                    <path d="M10.8728095,168.335655 C91.0339567,116.030479 190.558239,88.6790154 309.445657,86.2812639 C428.333074,83.8835124 529.184522,112.194315 612,171.213672 L0,188.14085 L10.8728095,168.335655 Z" id="路径-4" fill="url(#linearGradient-1)"></path>
                    <ellipse id="椭圆形" fill="#D5D9E1" cx="306.508108" cy="113.922719" rx="49" ry="5"></ellipse>
                    <path d="M96.9630977,0.39756359 C125.928586,-5.70072759 112.711083,60.3755719 126.445323,60.3755719 C140.179562,60.3755719 135.010283,32.652448 152.889998,34.0764185 C170.769713,35.500389 181.681373,93.2084729 181.681373,98.4717623 C181.681373,101.980622 154.16303,108.368828 99.1263441,117.63638 C73.2640024,94.0054307 62.376864,79.1008771 66.4649287,72.9227188 C72.5970259,63.6554815 85.5092303,94.1057834 90.127746,92.9227188 C94.7462617,91.7396543 67.9976091,6.49585477 96.9630977,0.39756359 Z" id="路径-2" fill="url(#linearGradient-2)"></path>
                    <path d="M475.342255,8.47017563 C469.774231,14.3504356 467.904012,21.3125912 469.731597,29.3566422 C471.150664,35.6026113 473.23009,36.5289084 474.905958,37.3624482 L475.131885,37.4760287 C476.582847,38.2169461 477.678765,39.0716476 477.678765,43.6799641 C477.678765,53.7237309 460.880505,70.9082227 460.880505,73.5055254 C460.880505,76.1028281 466.535626,78.371377 466.535626,85.14085 C466.535626,91.910323 460.375255,102.455125 449.922888,105.688922 C444.242254,107.44642 433.778226,105.806927 418.530805,100.770441 L417.300807,100.360275 C414.2003,99.3167433 410.908457,98.1373319 407.425279,96.8220408 C408.313853,95.0546652 410.61204,91.1609349 414.319841,85.14085 C414.495219,84.8561025 414.668781,84.5823004 414.840538,84.3188928 C420.115667,76.2289195 423.687371,77.9438221 425.809024,73.5055254 C427.999758,68.9227188 425.70508,48.2140599 431.706243,43.6799641 C437.707407,39.1458683 445.682206,41.8918514 449.922888,38.5458835 C454.16357,35.1999155 455.225385,20.5017823 460.880505,15.7122506 C464.050204,13.0277152 467.932326,11.0296472 472.526873,9.71804649 C473.107051,9.55242371 474.045512,9.13646675 475.342255,8.47017563 Z M450.425279,50.2507837 C438.583457,65.748113 432.322024,77.604985 431.64098,85.8213998 C430.959936,94.0378146 430.361386,100.009879 429.84533,103.737593 L437.693838,105.351586 C437.773188,94.0088991 438.58701,86.1352176 440.135304,81.7305417 C441.683599,77.3258657 445.11359,66.832613 450.425279,50.2507837 Z" id="形状结合" fill="#D5D9E1"></path>
                    <path d="M518.244735,62.6064051 C533.110002,70.2424549 527.225877,88.9641494 500.59236,118.771489 L469.151851,106.922719 C487.015173,69.7424598 503.379467,54.9703553 518.244735,62.6064051 Z" id="路径-7备份-2" fill="#D5D9E1"></path>
                </g>
                <g id="2" transform="translate(136.956894, 0.000000)">
                    <polygon id="路径-12" fill="#BCC1D6" transform="translate(114.675900, 16.697819) rotate(-10.000000) translate(-114.675900, -16.697819) " points="113.045267 14 113.705176 20.0934403 116.306533 19.4090337 115.727773 13.3021981"></polygon>
                    <path d="M133.286311,122.001808 C172.498528,122.001808 205.79716,121.331505 205.79716,83.5 C205.79716,45.6684946 174.009377,15 134.79716,15 C95.5849428,15 63.79716,45.6684946 63.79716,83.5 C63.79716,121.331505 94.0740937,122.001808 133.286311,122.001808 Z" id="椭圆形" fill="url(#linearGradient-3)"></path>
                    <g id="椭圆形备份-6" transform="translate(0.000000, 24.532684)" fill="url(#linearGradient-4)">
                        <path d="M140.628934,124.88028 C220.607918,125.558945 276.142161,105.734144 277.854914,79.2209236 C279.567668,52.7077028 215.697666,33.4694 141.69151,33.4694 C67.6853533,33.4694 7.8149164,52.3021718 7.22501062,79.2892928 C6.63510483,106.276414 60.6499503,124.201615 140.628934,124.88028 Z" transform="translate(142.554406, 79.183296) rotate(-15.000000) translate(-142.554406, -79.183296) "></path>
                    </g>
                    <circle id="椭圆形" fill="url(#linearGradient-5)" cx="111.29716" cy="7.5" r="7.5"></circle>
                    <path d="M141.368438,142.579955 C181.961367,142.579955 214.970931,135.94979 214.869393,126.079955 C214.765945,116.210119 181.961367,109.579955 141.368438,109.579955 C100.775509,109.579955 67.8684381,116.967256 67.8684381,126.079955 C67.8684381,135.192653 100.775509,142.579955 141.368438,142.579955 Z" id="椭圆形" fill="#F4F5FB" transform="translate(141.368916, 126.079955) rotate(-15.000000) translate(-141.368916, -126.079955) "></path>
                    <ellipse id="椭圆形" fill="#F3F4FB" transform="translate(100.051876, 99.831814) rotate(-17.000000) translate(-100.051876, -99.831814) " cx="100.051876" cy="99.8318135" rx="14.5" ry="8.5"></ellipse>
                    <ellipse id="椭圆形备份" fill="#F3F4FB" transform="translate(180.972448, 81.125181) rotate(-14.000000) translate(-180.972448, -81.125181) " cx="180.972448" cy="81.1251814" rx="14.5" ry="8.5"></ellipse>
                    <path d="M96.0976914,133.746483 C111.197561,128.625137 126.430717,124.069984 141.79716,120.081021 C157.163603,116.092059 172.877275,113.303712 188.938176,111.715979 L273.086308,202.271345 L56.1558013,250.644767 L96.0976914,133.746483 Z" id="路径-11" fill="url(#linearGradient-6)" opacity="0.476835029"></path>
                    <ellipse id="椭圆形备份-2" fill="#F3F4FB" opacity="0.484647529" transform="translate(245.001313, 88.788091) rotate(-14.000000) translate(-245.001313, -88.788091) " cx="245.001313" cy="88.7880906" rx="10" ry="6"></ellipse>
                    <ellipse id="椭圆形备份-3" fill="#F4F5FB" opacity="0.567496366" transform="translate(45.001313, 137.788091) rotate(-14.000000) translate(-45.001313, -137.788091) " cx="45.0013126" cy="137.788091" rx="10" ry="6"></ellipse>
                </g>
                <g id="1" transform="translate(242.625068, 158.000000)">
                    <path d="M59.6289862,2.84217094e-14 C77.2669086,2.84217094e-14 83.1289862,12.7598846 83.1289862,28.5 C83.1289862,44.2401154 77.3446482,58.4718109 59.6289862,58.4718109 C41.9133241,58.4718109 36.1289862,44.2401154 36.1289862,28.5 C36.1289862,12.7598846 41.9910637,2.84217094e-14 59.6289862,2.84217094e-14 Z M59.6289862,13 C54.430356,13 54.1454996,19.3999169 54.129891,27.563389 L54.129891,30.436611 C54.1454996,38.6000831 54.430356,45 59.6289862,45 C64.8276163,45 65.1124727,38.6000831 65.1280813,30.436611 L65.128972,29.3621901 C65.1289862,29.2417835 65.1289862,29.1210487 65.1289862,29 L65.128972,28.6378099 L65.128972,28.6378099 L65.1280813,27.563389 C65.1124727,19.3999169 64.8276163,13 59.6289862,13 Z" id="形状结合" fill="url(#linearGradient-7)"></path>
                    <polygon id="路径-13" fill="url(#linearGradient-8)" points="11.6956198 35.5813488 28.5520526 34.3477803 17.4181341 67.5478009 23.6921608 67.5478009 23.6921608 56.4435991 38.743782 56.4435991 38.743782 66.389289 47.4197649 66.389289 47.4197649 78.7388738 41.0017336 78.7388738 41.0017336 89.8409907 25.8111188 89.8409907 25.3426189 80.3595396 0 80.3595396 0 69.1775014"></polygon>
                    <polygon id="路径-13备份-2" fill="url(#linearGradient-8)" transform="translate(111.236774, 40.555228) rotate(-13.000000) translate(-111.236774, -40.555228) " points="99.2225112 14.0421911 116.078944 12.8086225 104.945026 46.0086432 111.219052 46.0086432 111.219052 34.9044413 126.270673 34.9044413 126.270673 44.8501312 134.946656 44.8501312 134.946656 57.199716 128.528625 57.199716 128.528625 68.301833 113.33801 68.301833 112.86951 58.8203819 87.5268914 58.8203819 87.5268914 47.6383436"></polygon>
                </g>
            </g>
        </g>
    </g>
</svg>