<?xml version="1.0" encoding="UTF-8"?>
<svg width="231px" height="45px" viewBox="0 0 231 45" version="1.1" xmlns="http://www.w3.org/2000/svg" xmlns:xlink="http://www.w3.org/1999/xlink">
    <title>编组</title>
    <defs>
        <text id="text-1" font-family="ArialUnicodeMS, Arial Unicode MS" font-size="10" font-weight="normal" line-spacing="10" letter-spacing="0.4" fill="#FFFFFF">
            <tspan x="0" y="40.1979183">STAR CITY DIGITAL OPERATION PLATFORM</tspan>
        </text>
        <filter x="-0.9%" y="-10.0%" width="101.8%" height="140.0%" filterUnits="objectBoundingBox" id="filter-2">
            <feOffset dx="0" dy="1" in="SourceAlpha" result="shadowOffsetOuter1"></feOffset>
            <feGaussianBlur stdDeviation="0.5" in="shadowOffsetOuter1" result="shadowBlurOuter1"></feGaussianBlur>
            <feColorMatrix values="0 0 0 0 0   0 0 0 0 0.470588235   0 0 0 0 0.858823529  0 0 0 0.4 0" type="matrix" in="shadowBlurOuter1"></feColorMatrix>
        </filter>
        <text id="text-3" font-family=".PingFangSC-Regular, .PingFang SC" font-size="20.2703189" font-weight="300" line-spacing="28.3784465">
            <tspan x="66.0610617" y="20.9102283">城市数字平台</tspan>
        </text>
        <filter x="-4.1%" y="-19.0%" width="108.2%" height="144.8%" filterUnits="objectBoundingBox" id="filter-4">
            <feOffset dx="0" dy="1" in="SourceAlpha" result="shadowOffsetOuter1"></feOffset>
            <feGaussianBlur stdDeviation="2" in="shadowOffsetOuter1" result="shadowBlurOuter1"></feGaussianBlur>
            <feColorMatrix values="0 0 0 0 0   0 0 0 0 0.468941524   0 0 0 0 0.856884058  0 0 0 0.4 0" type="matrix" in="shadowBlurOuter1"></feColorMatrix>
        </filter>
        <path d="M54.72461,0.836594077 C57.8868112,0.988699479 60.3452256,1.75864795 62.4283028,3.21227645 C64.51138,4.66590496 65.2349339,6.15261036 65.0372513,8.40719539 C64.8732258,10.2779181 62.8485479,11.9261428 60.7422671,13.0346306 C58.9822909,13.9608662 55.3190406,14.4835212 52.1734156,14.6303477 L52.1286362,14.9508563 L63.8601273,14.9508563 L63.6743344,16.1888597 C63.5600004,16.7850888 63.2647421,17.1061352 62.7885596,17.1519989 L62.6657447,17.1577319 L51.8366761,17.1577319 L51.3854649,19.9836093 L62.612661,19.9836093 L62.5064937,20.6295241 C62.4357154,21.060134 62.2587699,21.4279466 61.975657,21.7329619 C61.7279332,21.9998503 61.4463409,22.149975 61.1308801,22.1833361 L60.9936091,22.1904849 L51.0669629,22.1904849 L50.721919,24.8279704 L62.931163,24.8279704 L62.6657447,26.8733673 C62.6303556,27.0527881 62.5463064,27.1918392 62.4135973,27.2905206 C62.3140654,27.3645317 62.202092,27.4107886 62.0776772,27.4292914 L61.9491151,27.4385428 L32.7997317,27.2777933 L33.0120664,25.60918 C33.0474555,25.357991 33.1536229,25.1382005 33.3305684,24.9498087 C33.4780231,24.7928155 33.6439095,24.7012361 33.8282278,24.6750706 L33.9410306,24.6672209 L45.5462612,24.8279704 L45.9178469,22.1904849 L34.2804839,22.1904849 L34.413193,21.1408733 C34.4662767,20.7820317 34.6255277,20.499444 34.8909461,20.2931101 C35.112128,20.1211652 35.3455979,20.020864 35.5913556,19.9922065 L35.7402848,19.9836093 L46.2098071,19.9836093 L46.6610183,17.1577319 L39.5357672,17.1577319 C38.8888099,18.2510773 38.0630064,18.8319171 37.0583565,18.9002511 L36.8550419,18.9070846 L33.6434798,18.9070846 L35.7402848,14.4395071 C35.9447552,14.0886397 36.1911683,13.8937135 36.479524,13.8547282 L36.5896235,13.8474185 L40.5443569,14.9508563 L46.9795203,14.9508563 L47.0413586,14.419202 C44.9791122,14.1583294 42.3899338,13.6968057 39.2738233,13.0346306 C33.1978739,11.365713 29.121458,10.2987748 27.0445757,9.83381626 C26.8850366,9.79809972 26.7317013,9.76366969 26.5837617,9.73044762 L24.4801016,11.2567372 L23.5843241,11.9495676 C23.2681674,12.198276 22.978357,12.4025722 22.7148931,12.5624561 C22.5304683,12.6823691 22.3411036,12.7822966 22.1467989,12.8622385 L21.9508476,12.9355187 C21.7532496,13.0154607 21.5507117,13.0754172 21.3432338,13.1153881 L21.1341093,13.1486973 C20.9092867,13.191333 20.6563613,13.2169145 20.3753331,13.2254416 L20.1592926,13.2286393 L17.9418958,13.2286393 L18.1790133,11.3633265 L18.4688237,11.3633265 C18.6795949,11.3633265 18.8446723,11.3277967 19.0378792,11.2567372 L19.6043267,10.8969983 C19.7992901,10.7744206 20.0068997,10.6390522 20.2271555,10.490893 L22.1731004,9.15159847 L22.428601,8.94855914 C21.5028267,8.83539448 20.383212,8.73804612 18.7777997,8.62812852 C18.5325845,8.61133939 18.2817565,8.59537533 18.025512,8.58046322 L17.6520854,10.9369693 C17.5642641,11.5765051 17.2832359,12.118334 16.8090007,12.5624561 C16.3778779,12.9662035 15.8959493,13.1864293 15.363215,13.2231336 L15.2018706,13.2286393 L4.03099861,13.2286393 C3.4513779,13.2286393 2.97714277,13.0065782 2.60829322,12.5624561 C2.28894296,12.1587088 2.14378376,11.674212 2.1728156,11.1089657 L2.18675088,10.9369693 L2.39871897,9.59614299 C2.02889756,9.67084906 1.65690758,9.75000332 1.28293117,9.83381626 L0,9.36209523 C0.859531456,9.16321303 1.70055892,8.9763489 2.52467276,8.80188822 L3.21426033,4.42940992 L7.45603011,4.42940992 L7.24525894,6.00160212 L7.19256615,6.37466468 L6.8517326,7.97726663 C9.36553811,7.55765026 11.7290367,7.27841465 13.9980018,7.15307476 L14.2007075,6.00160212 L7.69314768,6.00160212 L7.90391885,4.42940992 L18.6795949,4.42940992 L18.2579496,7.10525293 C18.5288531,7.11491686 18.7988408,7.12711257 19.0680212,7.14186633 C21.3352159,7.2661311 22.9565542,7.38568909 24.2342907,7.51146487 L27.600458,4.8291198 L32.3576741,4.8291198 L28.5430418,8.1304594 C28.5878086,8.13860254 28.6328004,8.14679827 28.6780522,8.15504786 C30.9919302,8.5768771 34.6388047,9.73783964 39.5357672,10.8969983 C44.4327296,12.056157 47.0591458,12.5624561 51.8366761,12.3781723 C57.807974,12.1478412 61.4102622,10.1627486 61.8263157,7.9160789 C62.2423692,5.66940923 60.5862785,4.49371721 59.2919439,3.69128545 C57.9976094,2.88885369 55.6377006,2.14177899 53.7585756,2.03394445 C51.8794507,1.92610992 47.333434,1.42439862 38.8025204,5.46230291 L38.241265,5.79955341 C38.2959499,5.28471975 38.3398489,5.01688125 38.3729621,4.9960379 C45.4121081,0.565191949 51.5624087,0.684488674 54.72461,0.836594077 Z M7.24525894,22.8019081 L5.79620716,25.493288 C5.07690872,26.7283704 4.11864071,27.3753183 2.92140311,27.4341318 L2.7400252,27.4385428 L0.210771169,27.4385428 L2.52925403,22.8019081 L7.24525894,22.8019081 Z M28.796611,22.8019081 L29.9031596,27.4385428 L28.0062191,27.4385428 C27.2158272,27.4385428 26.5088656,27.1853932 25.8853342,26.679094 C25.3137638,26.2149864 24.91561,25.6128 24.6908728,24.8725349 L24.6338804,24.6672209 L24.1859917,22.8019081 L28.796611,22.8019081 Z M27.0487705,14.9667478 C27.2222428,14.9656848 27.3637317,15.1054502 27.3647947,15.2789225 C27.3656807,15.4235117 27.2677466,15.5500269 27.1275496,15.5854052 L12.9887733,19.1532876 L24.9119307,19.1532876 L24.2336232,17.5488012 L26.6574917,17.5488012 C27.9175367,17.5488012 28.5171469,17.2328354 29.1825968,18.5656382 L29.2714972,18.7515147 L30.5097778,21.3205915 L18.7183524,21.311721 L18.3107453,24.3741004 C18.1877955,25.3334041 17.7925995,26.0795292 17.1251575,26.6124757 C16.5294362,27.1172945 15.8673,27.390738 15.138749,27.4328062 L14.9384066,27.4385428 L8.95777469,27.4385428 L9.03681388,26.9055963 C9.10707094,26.4437093 9.30027784,26.0662055 9.6164346,25.7730849 C9.89746282,25.5125333 10.2270638,25.3677824 10.6052376,25.3388322 L10.7493296,25.3334041 L12.3564598,25.3334041 C12.6726166,25.3334041 12.9272984,25.2356972 13.1205053,25.0402835 C13.2710561,24.8880131 13.3764417,24.6835356 13.436662,24.4268512 L13.4630084,24.2941584 L13.8442691,21.311721 L0.64472462,21.311721 L0.723763809,20.6988325 C0.794020865,20.2547104 0.977992117,19.9159374 1.40547603,19.6385867 C1.6904653,19.4536863 5.34079322,18.573883 12.3564598,16.9991769 L2.39752205,16.9991769 C2.39752205,15.8855991 3.30025519,14.982866 4.41383294,14.982866 L24.4208188,14.9828512 L24.4208188,14.9828512 L27.0487705,14.9667478 Z M6.66914283,8.90601868 L6.63929183,9.06611948 L6.37582787,10.9369693 C6.34460251,11.1264614 6.41052271,11.2317348 6.57358847,11.2527894 L6.63929183,11.2567372 L12.9887733,11.2567372 C13.1578293,11.2567372 13.266371,11.1751298 13.3143983,11.0119149 L13.3312765,10.9369693 L13.5420476,9.73783963 L13.767249,8.46418531 C11.6002433,8.47436666 9.21092244,8.59473648 6.66914283,8.90601868 Z M25.9775466,1.52485143 L25.4506187,2.29762387 L33.4862695,2.29762387 L33.4072303,2.80392306 C33.3369733,3.23028027 33.1525485,3.58557794 32.853956,3.86981608 C32.5926876,4.11852445 32.2910762,4.25842291 31.949122,4.28951146 L31.8001002,4.29617329 L24.1069525,4.29617329 C23.7688404,4.76842311 23.3495546,5.0242251 22.849095,5.06357925 L22.7105935,5.06894573 L19.2592156,5.06894573 L21.5513521,1.52485143 L25.9775466,1.52485143 Z M8.82604271,1.52485143 L8.61527154,1.84461934 L19.549026,1.84461934 L19.549026,1.89791399 C19.4612046,2.39533073 19.2504335,2.79948184 18.9167124,3.1103673 C18.6200715,3.38670994 18.2748579,3.54023362 17.8810714,3.57093836 L17.7311246,3.5766955 L7.58776209,3.5766955 C7.36645237,3.9284402 7.08823442,4.12189978 6.75310826,4.15707425 L6.63929183,4.16293666 L2.79271799,4.16293666 L4.34715537,1.52485143 L8.82604271,1.52485143 Z" id="path-5"></path>
        <filter x="-3.1%" y="-3.8%" width="106.1%" height="115.0%" filterUnits="objectBoundingBox" id="filter-6">
            <feOffset dx="0" dy="1" in="SourceAlpha" result="shadowOffsetOuter1"></feOffset>
            <feGaussianBlur stdDeviation="0.5" in="shadowOffsetOuter1" result="shadowBlurOuter1"></feGaussianBlur>
            <feColorMatrix values="0 0 0 0 0   0 0 0 0 0.470588235   0 0 0 0 0.858823529  0 0 0 0.4 0" type="matrix" in="shadowBlurOuter1"></feColorMatrix>
        </filter>
        <linearGradient x1="50%" y1="100%" x2="50%" y2="-1.91428435e-14%" id="linearGradient-7">
            <stop stop-color="#FCFF00" offset="0%"></stop>
            <stop stop-color="#FFFF91" offset="29.183908%"></stop>
            <stop stop-color="#FDFC00" offset="45.941359%"></stop>
            <stop stop-color="#FFFFFF" offset="49.1071585%"></stop>
            <stop stop-color="#FEC900" offset="52.6922008%"></stop>
            <stop stop-color="#FEC000" offset="70.8745569%"></stop>
            <stop stop-color="#FFF700" offset="100%"></stop>
        </linearGradient>
        <path d="M48.5657926,10.8746336 L49.1887358,11.6108074 L50.0563697,10.850568 C52.0273039,9.12359357 54.4373252,8.07217704 56.8679933,7.87887082 L60.7345556,7.57137076 L57.2031805,7.42226406 C54.6511987,7.31451068 52.3691082,6.22702209 50.8034773,4.37260225 L50.2957515,3.77122373 L49.5814167,4.39822132 C47.5172608,6.21000595 44.9735657,7.27743589 42.4326947,7.3980933 L38.7837214,7.57137076 L42.4956975,7.85122173 C44.916823,8.0337537 47.0689174,9.10567557 48.5657926,10.8746336 Z" id="path-8"></path>
        <filter x="-2.3%" y="-6.4%" width="104.6%" height="112.8%" filterUnits="objectBoundingBox" id="filter-9">
            <feGaussianBlur stdDeviation="0.5" in="SourceAlpha" result="shadowBlurInner1"></feGaussianBlur>
            <feOffset dx="0" dy="0" in="shadowBlurInner1" result="shadowOffsetInner1"></feOffset>
            <feComposite in="shadowOffsetInner1" in2="SourceAlpha" operator="arithmetic" k2="-1" k3="1" result="shadowInnerInner1"></feComposite>
            <feColorMatrix values="0 0 0 0 1   0 0 0 0 1   0 0 0 0 1  0 0 0 0.6 0" type="matrix" in="shadowInnerInner1"></feColorMatrix>
        </filter>
    </defs>
    <g id="控件" stroke="none" stroke-width="1" fill="none" fill-rule="evenodd">
        <g id="navbar" transform="translate(-31.000000, -17.000000)">
            <g id="编组" transform="translate(32.000000, 20.000000)">
                <g id="Star-city-digital-op备份-12" fill="#FFFFFF" fill-opacity="1">
                    <use filter="url(#filter-2)" xlink:href="#text-1"></use>
                    <use xlink:href="#text-1"></use>
                </g>
                <g id="城市数字平台" fill-rule="nonzero" fill="#FFFFFF">
                    <use fill-opacity="1" filter="url(#filter-4)" xlink:href="#text-3"></use>
                    <use xlink:href="#text-3"></use>
                    <use xlink:href="#text-3"></use>
                    <use fill-opacity="1" xlink:href="#text-3"></use>
                </g>
                <g id="形状结合" fill-rule="nonzero">
                    <use fill="black" fill-opacity="1" filter="url(#filter-6)" xlink:href="#path-5"></use>
                    <use fill="#FFFFFF" xlink:href="#path-5"></use>
                </g>
                <g id="形状结合备份-8">
                    <use fill="url(#linearGradient-7)" fill-rule="evenodd" xlink:href="#path-8"></use>
                    <use fill="black" fill-opacity="1" filter="url(#filter-9)" xlink:href="#path-8"></use>
                </g>
            </g>
        </g>
    </g>
</svg>